<mxfile host="app.diagrams.net" modified="2023-07-23T18:21:57.634Z" agent="Mozilla/5.0 (Windows NT 10.0; Win64; x64) AppleWebKit/537.36 (KHTML, like Gecko) Chrome/114.0.0.0 Safari/537.36" version="21.6.5" etag="wk8RdcfWk9Mr7Y0VO9kW" type="github">
  <diagram name="Page-1" id="JlTvGkp00BZU2TSiGvJY">
    <mxGraphModel>
      <root>
        <mxCell id="0" />
        <mxCell id="1" parent="0" />
      </root>
    </mxGraphModel>
  </diagram>
</mxfile>
